<?xml version="1.0" standalone="no"?>
<!DOCTYPE svg PUBLIC "-//W3C//DTD SVG 20010904//EN"
 "http://www.w3.org/TR/2001/REC-SVG-20010904/DTD/svg10.dtd">
<svg version="1.0" xmlns="http://www.w3.org/2000/svg"
 width="16.000000pt" height="16.000000pt" viewBox="0 0 16.000000 16.000000"
 preserveAspectRatio="xMidYMid meet">
<metadata>
Created by potrace 1.11, written by Peter Selinger 2001-2013
</metadata>
<g transform="translate(0.000000,16.000000) scale(0.006154,-0.006154)"
fill="#000000" stroke="none">
<path d="M403 2062 l-133 -3 -1 -127 c0 -70 -2 -156 -4 -192 -2 -36 -6 -119
-9 -185 -3 -66 -9 -158 -12 -204 l-6 -83 239 5 c258 5 301 12 377 65 58 40
111 113 138 189 19 56 23 88 23 178 -1 97 -4 117 -27 166 -51 110 -132 171
-246 185 -65 8 -173 10 -339 6z m316 -141 c115 -42 159 -225 91 -378 -49 -110
-109 -143 -272 -151 l-118 -5 -1 24 c-1 13 -1 27 -1 30 1 3 4 73 7 155 4 82 8
181 10 219 2 39 4 83 5 98 l0 28 117 -2 c79 -1 131 -7 162 -18z"/>
<path d="M1715 2051 c-133 -39 -208 -98 -262 -209 -38 -75 -38 -77 -38 -197 1
-112 2 -124 30 -178 51 -103 152 -174 281 -198 51 -10 239 -7 296 4 29 5 28 4
43 101 6 41 4 48 -9 43 -53 -21 -112 -30 -191 -31 -74 0 -98 4 -138 23 -195
95 -186 402 17 505 50 26 68 30 144 30 59 0 104 -6 140 -18 29 -10 54 -16 55
-15 2 2 1 34 -1 71 -3 50 -8 68 -20 73 -9 4 -78 9 -152 11 -107 2 -148 -1
-195 -15z"/>
<path d="M1123 1345 l-2 -76 82 3 81 3 4 73 4 72 -84 0 -83 0 -2 -75z"/>
<path d="M2197 1413 c-2 -5 -4 -39 -6 -76 l-3 -68 84 3 83 3 2 73 3 72 -80 0
c-43 0 -80 -3 -83 -7z"/>
<path d="M82 946 c2 -7 28 -86 58 -175 l55 -161 45 0 45 0 88 175 87 175 -40
0 -41 0 -40 -87 c-23 -49 -53 -113 -66 -143 l-26 -55 -46 142 -46 143 -38 0
c-27 0 -38 -4 -35 -14z"/>
<path d="M799 903 c0 -32 -2 -80 -4 -108 -4 -85 -7 -159 -6 -172 1 -8 15 -13
36 -13 34 0 35 1 36 38 2 83 9 229 13 269 l4 43 -39 0 -39 0 -1 -57z"/>
<path d="M1621 922 c-6 -2 -11 -12 -11 -23 0 -11 -8 -23 -17 -26 -36 -13 -45
-53 -12 -53 19 0 20 -4 15 -90 -6 -107 7 -130 72 -130 44 0 62 14 62 47 0 21
-2 22 -21 11 -17 -11 -22 -10 -33 4 -7 10 -12 30 -10 45 1 16 2 47 3 70 1 40
3 42 34 45 25 2 32 8 33 26 1 18 -4 22 -31 22 -24 0 -32 4 -32 18 0 35 -3 41
-22 39 -10 0 -23 -3 -30 -5z"/>
<path d="M555 863 c-81 -21 -119 -115 -79 -198 40 -85 193 -86 244 -3 24 40
26 107 5 148 -24 47 -100 70 -170 53z m96 -64 c18 -18 20 -30 16 -67 -8 -71
-63 -104 -112 -66 -31 23 -28 109 4 135 31 25 66 24 92 -2z"/>
<path d="M939 868 c-1 -2 -3 -53 -6 -114 l-5 -111 29 -23 c23 -18 37 -21 76
-17 26 2 56 12 67 22 18 16 20 16 20 2 0 -13 9 -17 35 -17 l35 0 1 73 c0 39 3
98 5 130 l4 57 -35 0 c-19 0 -36 -4 -36 -10 -2 -12 -6 -76 -8 -122 -2 -43 -21
-66 -58 -74 -21 -4 -35 -1 -47 12 -16 15 -17 30 -12 106 l5 88 -34 0 c-19 0
-35 -1 -36 -2z"/>
<path d="M1259 868 c0 -2 -2 -46 -5 -98 -3 -52 -6 -108 -7 -125 -2 -28 1 -30
34 -33 l36 -3 6 74 c3 41 11 84 19 96 17 28 52 37 85 22 25 -11 25 -13 21
-101 l-4 -90 37 0 37 0 2 63 c5 130 3 148 -20 172 -18 20 -31 23 -75 22 -36
-2 -60 -9 -74 -21 -21 -19 -21 -19 -21 2 0 18 -6 22 -35 22 -19 0 -35 -1 -36
-2z"/>
<path d="M1843 856 c-89 -40 -99 -197 -15 -240 27 -14 141 -19 159 -7 17 10
22 49 7 47 -7 -1 -17 -5 -20 -9 -4 -4 -25 -7 -46 -7 -46 0 -88 35 -88 75 l0
25 96 0 97 0 -6 37 c-9 54 -45 85 -104 90 -28 2 -61 -3 -80 -11z m101 -42 c32
-32 20 -44 -44 -44 -52 0 -59 2 -53 18 16 40 69 55 97 26z"/>
<path d="M2117 848 c-77 -56 -76 -192 1 -232 27 -14 141 -19 159 -7 5 3 12 16
16 29 4 19 2 22 -11 17 -9 -4 -36 -10 -59 -12 -35 -4 -46 -1 -68 21 -14 14
-25 37 -25 51 l0 25 96 0 97 0 -6 38 c-9 56 -54 90 -121 90 -36 0 -61 -7 -79
-20z m117 -34 c32 -32 20 -44 -44 -44 -60 0 -61 0 -49 23 7 12 17 25 23 29 19
13 54 9 70 -8z"/>
<path d="M2363 793 c0 -43 -2 -100 -4 -128 l-4 -50 36 -3 37 -3 3 79 c5 90 23
122 69 122 23 0 27 4 25 28 -1 33 -32 41 -69 16 -24 -15 -26 -15 -26 0 0 11
-9 16 -33 16 l-32 0 -2 -77z"/>
</g>
</svg>
